<?xml version="1.0" encoding="UTF-8" standalone="no"?>
<svg
   xmlns:dc="http://purl.org/dc/elements/1.1/"
   xmlns:cc="http://creativecommons.org/ns#"
   xmlns:rdf="http://www.w3.org/1999/02/22-rdf-syntax-ns#"
   xmlns:svg="http://www.w3.org/2000/svg"
   xmlns="http://www.w3.org/2000/svg"
   xmlns:sodipodi="http://sodipodi.sourceforge.net/DTD/sodipodi-0.dtd"
   xmlns:inkscape="http://www.inkscape.org/namespaces/inkscape"
   viewBox="0 0 700 900"
   width="100%"
   height="100%"
   preserveAspectRatio="xMinYMin meet"
   version="1.1"
   id="svg122"
   sodipodi:docname="argentina_map_simple_expandido_V1.svg"
   inkscape:version="0.92.4 (5da689c313, 2019-01-14)">
  <metadata
     id="metadata128">
    <rdf:RDF>
      <cc:Work
         rdf:about="">
        <dc:format>image/svg+xml</dc:format>
        <dc:type
           rdf:resource="http://purl.org/dc/dcmitype/StillImage" />
        <dc:title>Argentina regions</dc:title>
      </cc:Work>
    </rdf:RDF>
  </metadata>
  <defs
     id="defs126">
    <inkscape:path-effect
       effect="roughen"
       id="path-effect3754"
       is_visible="true"
       method="segments"
       max_segment_size="10"
       segments="2"
       displace_x="10;1"
       displace_y="10;1"
       global_randomize="1;1"
       handles="along"
       shift_nodes="true"
       fixed_displacement="false"
       spray_tool_friendly="false" />
  </defs>
  <sodipodi:namedview
     pagecolor="#ffffff"
     bordercolor="#666666"
     borderopacity="1"
     objecttolerance="10"
     gridtolerance="10"
     guidetolerance="10"
     inkscape:pageopacity="0"
     inkscape:pageshadow="2"
     inkscape:window-width="1366"
     inkscape:window-height="715"
     id="namedview124"
     showgrid="false"
     inkscape:zoom="8.923688"
     inkscape:cx="237.39315"
     inkscape:cy="754.87875"
     inkscape:window-x="-8"
     inkscape:window-y="-8"
     inkscape:window-maximized="1"
     inkscape:current-layer="regions"
     inkscape:snap-bbox="true" />
  <title
     id="title70">Argentina regions</title>
  <g
     id="regions"
     transform="translate(106,50)">
    <path
       style="fill:#f2f2f2"
       d="M 59.308546,-31.914158 C 54.321058,-23.530346 49.262039,-15.18076 44.197622,-6.833757 34.951779,8.4049351 25.68795,23.635021 16.808559,39.049058 10.894963,55.720201 4.69725,72.303045 -1.3901739,88.920164 -6.7687346,103.60227 -12.061195,118.31113 -16.99551,133.1313 c -6.08888,23.83628 -12.5701,47.64799 -18.416647,71.49946 1.76317,14.67499 3.781843,29.33913 5.700246,44.00752 1.697624,12.98029 3.316728,25.96392 4.610776,38.96136 -0.720231,15.54828 -1.415833,31.09731 -2.049444,46.64825 -0.623873,15.31192 -1.187644,30.6257 -1.655649,45.94243 -0.629355,20.59742 -3.774997,55.54403 -3.971244,76.15484 l -0.277007,24.39701 -0.502023,44.21492 3.265082,37.53589 5.873982,67.5282 2.960341,68.18194 19.2304685,46.9336 39.2712805,48.19145 115.582388,-3.12102 29.67216,-327.3477 c 3.33191,-9.74807 6.66382,-19.49614 9.99572,-29.24422 22.42754,-7.31764 44.85661,-14.63064 67.2832,-21.95117 L 294.5918,361.53711 310.75664,252.56516 372.15915,151.5249 360.60353,75.023425 306.07405,58.738051 C 286.54587,46.818509 227.4494,29.249164 208.59884,16.31761 188.31393,1.1497951 168.37538,-14.984346 147.87496,-29.550877 c -18.33192,-0.70294 -36.66382,-1.406215 -54.995733,-2.109275 -10.987095,-0.421374 -21.974197,-0.842671 -32.961306,-1.263772 l -0.516686,0.856175 z"
       id="ARGENTINA"
       inkscape:connector-curvature="0"
       sodipodi:nodetypes="cscsccscsscccccccccccccccccccsccc" />
    <path
       style="fill:#cdde87"
       d="m 68.431641,729.73633 c 1.910226,13.70897 3.819903,27.41802 5.730468,41.12695 10.923635,-5.18161 23.120835,-1.69825 34.605731,-4.38606 7.37881,-0.92613 14.75755,-1.8527 22.13646,-2.778 -9.80804,-4.06985 -19.72416,-7.95798 -27.48034,-15.48149 -8.98515,-6.68116 -17.601597,-14.34986 -26.808726,-20.43648 -2.344588,0.85949 -10.17612,-2.77819 -8.183593,1.95508 z"
       id="tierra-del-fuego"
       inkscape:connector-curvature="0" />
    <!-- <path id="M191.975528,733.121217 C191.659538,732.983867 191.401008,732.760657 191.401008,732.625197 C191.401008,732.489727 191.250798,732.242957 191.067208,732.076817 C190.799758,731.834777 190.431878,731.781377 189.216518,731.808167 C187.454488,731.846997 186.908068,731.605657 186.709328,730.700797 C186.596788,730.188417 186.647398,730.077667 187.176518,729.678337 C188.192428,728.911637 188.550678,728.449257 190.978978,724.770737 C192.277278,722.803997 193.602088,720.894817 193.923008,720.528097 C194.243928,720.161377 194.726698,719.562947 194.995818,719.198247 C195.672228,718.281617 196.159948,718.075867 198.386768,717.767767 C199.969108,717.548827 200.379308,717.429577 200.634628,717.114267 C201.031768,716.623827 201.021148,715.962717 200.603538,715.178227 C200.300208,714.608407 200.296178,714.520097 200.551108,714.029177 C200.946098,713.268567 200.901418,712.160487 200.446078,711.423727 C200.235418,711.082877 200.063058,710.756167 200.063058,710.697717 C200.063058,710.639257 200.480698,710.321367 200.991138,709.991287 C202.541308,708.988877 202.783858,708.631787 202.658138,707.536997 C202.599148,707.023347 202.496138,706.413447 202.429218,706.181677 C202.337648,705.864507 202.368838,705.780647 202.555328,705.842687 C202.691598,705.888017 203.041748,706.489377 203.333428,707.179047 C204.015698,708.792217 204.362258,709.166537 205.172788,709.165687 C206.121358,709.164707 206.872398,708.601607 207.764518,707.222517 C208.205038,706.541537 208.613768,705.984367 208.672808,705.984367 C208.891008,705.984367 209.963948,706.894097 210.145218,707.232797 C210.298228,707.518697 210.228798,707.727537 209.766888,708.370737 C209.350778,708.950147 209.196638,709.362007 209.184108,709.927927 C209.168128,710.648937 209.293168,711.014007 210.363418,713.371267 C211.077498,714.944047 212.992148,715.533127 214.026878,714.498397 C214.718088,713.807177 214.867418,712.702267 214.478738,711.154927 C214.314848,710.502447 214.099848,709.871137 214.000978,709.751997 C213.745028,709.443597 213.975138,709.166347 214.487078,709.166347 C214.836748,709.166347 214.992638,709.324457 215.261568,709.951837 C215.870028,711.371327 217.218028,711.660117 219.093618,710.772817 L220.181338,710.258227 L220.640418,711.281197 C221.445378,713.074897 221.285418,713.304447 219.031428,713.590227 C217.255578,713.815377 217.092198,713.874937 216.966738,714.342927 C216.638908,715.565777 216.985208,716.398277 218.268748,717.472917 C219.555598,718.550337 219.623748,718.745497 218.972218,719.487557 C218.117788,720.460687 217.159528,720.833617 215.513368,720.833617 C214.140698,720.833617 214.051648,720.860687 212.024568,721.894277 C209.402628,723.231177 208.902958,723.264017 206.532728,722.255197 C203.486418,720.958627 202.926078,720.793337 201.546668,720.784447 C200.138698,720.775377 199.532728,721.070527 199.532728,721.765407 C199.532728,722.861397 202.375378,725.464317 204.513628,726.326247 C205.450038,726.703717 206.020768,727.052077 206.265248,727.395417 L206.627868,727.904677 L205.834998,727.904677 C205.398918,727.904677 204.657668,727.739477 204.187778,727.537567 C203.717888,727.335657 202.299288,726.866487 201.035338,726.494957 C199.771378,726.123447 198.065278,725.493147 197.243988,725.094307 C195.280158,724.140627 194.371808,724.134687 193.818168,725.071927 C192.958198,726.527747 194.110098,728.112487 197.184718,729.703537 C198.357298,730.310327 198.626488,730.379557 199.813088,730.379557 C201.214638,730.379557 202.361158,730.721107 202.361158,731.138627 C202.361158,731.524587 201.756258,731.976457 201.101458,732.079647 C200.478868,732.177747 200.463158,732.170907 197.057858,730.317367 C195.463628,729.449617 193.629858,728.788567 192.816928,728.788567 C192.482598,728.788567 192.229128,728.935727 192.023848,729.249017 C191.648178,729.822357 191.762008,730.544207 192.476568,732.120137 C192.760058,732.745347 192.991998,733.285657 192.991998,733.320817 C192.991998,733.453037 192.530428,733.362387 191.975528,733.121207 L191.975528,733.121217 Z M197.303498,737.315327 C196.982518,737.102977 196.494378,736.024207 196.597578,735.755287 C196.663398,735.583777 196.988458,735.506077 197.640218,735.506077 C198.401538,735.506077 198.662578,735.586297 198.971588,735.915217 C199.469568,736.445297 199.456068,736.639107 198.890178,737.084237 C198.424418,737.450607 197.673308,737.560007 197.303498,737.315337 L197.303498,737.315327 Z M173.474728,729.841927 C173.192168,729.757407 172.714868,729.450917 172.414078,729.160857 C171.650838,728.424847 171.093258,728.258237 169.393428,728.258237 C167.778778,728.258237 167.509858,728.126397 167.090598,727.129267 C166.786218,726.405347 167.045038,725.751877 167.939328,724.986397 C168.887638,724.174687 169.436428,724.189487 171.270148,725.076257 C172.830668,725.830897 173.610888,725.942007 174.418158,725.524547 C175.039478,725.203247 175.809388,724.306037 175.952258,723.736807 C176.048038,723.355187 176.388498,723.200917 176.946168,723.286437 C177.182298,723.322657 177.576798,722.523257 177.699748,721.759387 C177.780008,721.260727 177.944918,720.939487 178.187178,720.809837 C178.470808,720.658047 181.382978,720.148367 182.071958,720.129947 C182.315248,720.123427 182.746808,719.292027 182.644838,719.026287 C182.588668,718.879897 182.018438,718.340017 181.377678,717.826547 L180.212658,716.892947 L180.678058,716.649107 C181.150398,716.401627 181.454318,715.706217 181.240988,715.361057 C181.176628,715.256917 180.831058,715.019197 180.473048,714.832797 C180.115048,714.646397 179.615178,714.269677 179.362238,713.995637 C179.109288,713.721597 178.592218,713.389367 178.213188,713.257357 C177.024548,712.843377 175.980698,712.168897 176.169788,711.937037 C176.410168,711.642277 176.091558,709.820057 175.647408,708.949457 L175.283658,708.236447 L175.785128,708.361217 C176.969938,708.655997 179.482438,710.301937 180.854408,711.682107 C183.063018,713.903897 183.566758,713.875787 183.804498,711.517497 C183.985118,709.725787 183.809408,708.937017 183.049158,708.126897 C181.930738,706.935097 181.501508,706.312207 181.501508,705.880917 C181.501508,705.493437 181.537038,705.472977 181.861878,705.673517 C182.273778,705.927787 184.234078,708.224277 184.873938,709.202137 C185.445898,710.076227 185.938728,710.176997 186.896528,709.615687 C187.318228,709.368547 187.778738,709.166347 187.919868,709.166347 C188.061008,709.166347 188.637478,709.524327 189.200928,709.961847 C189.764368,710.399367 190.383598,710.757337 190.576998,710.757337 C190.781038,710.757337 191.464178,710.209497 192.204528,709.452137 C193.562508,708.062977 194.641258,707.477557 194.967998,707.952467 C195.255748,708.370727 195.029298,712.008947 194.672088,712.706347 C193.913868,714.186687 193.311528,714.819607 192.404678,715.088917 C190.106248,715.771477 189.059578,716.940487 186.786398,721.363947 C186.039408,722.817537 184.999838,724.192367 184.647708,724.192367 C184.553428,724.192367 184.062548,723.754847 183.556868,723.220097 C183.051188,722.685347 182.541958,722.247827 182.425248,722.247827 C182.308548,722.247827 182.014338,722.562607 181.771468,722.947327 C181.528598,723.332067 181.156088,723.739857 180.943658,723.853547 C180.608028,724.033167 180.513118,723.999417 180.219228,723.595977 C179.766088,722.973937 179.002358,722.970457 178.516418,723.588227 C177.945578,724.313947 177.918658,724.646087 178.331638,725.868697 C178.865028,727.447797 178.741398,728.332127 177.882868,729.078777 C176.908848,729.925867 174.911358,730.271667 173.474738,729.841927 L173.474728,729.841927 Z M189.619348,706.803357 C189.271408,706.678967 188.816928,706.458257 188.609378,706.312887 C188.151808,705.992397 187.440928,705.112547 187.550798,705.002687 C187.628818,704.924657 190.446738,706.569267 190.773448,706.883507 C191.016558,707.117337 190.372518,707.072617 189.619348,706.803357 Z M167.005818,721.763927 C166.255758,721.274157 165.397738,720.416657 165.112648,719.871897 C164.855518,719.380567 164.862248,719.334607 165.235698,719.032207 C165.465458,718.846157 165.918248,718.712297 166.317788,718.712297 C167.128898,718.712297 168.086928,719.472887 168.740458,720.635687 L169.146178,721.357567 L168.562128,721.713647 C167.865838,722.138167 167.592478,722.146997 167.005818,721.763927 Z M175.156498,717.981377 C174.591278,717.892347 174.319998,717.806247 174.319998,717.715877 C174.319998,717.582477 175.768248,717.342917 176.397118,717.372307 C176.945808,717.397937 177.015838,717.421087 177.015838,717.576797 C177.015838,717.921517 176.075478,718.126137 175.156498,717.981377 Z M171.670858,714.968817 C171.118758,714.711847 170.662468,714.350067 170.763298,714.249227 C170.932088,714.080447 172.052338,714.057257 172.583128,714.211567 C173.181638,714.385557 173.280798,714.547307 172.975868,714.852237 C172.669928,715.158167 172.173048,715.202557 171.670858,714.968817 Z M173.315448,720.974527 C173.043268,720.760427 173.025208,720.570547 173.251288,720.299707 C173.383728,720.141037 173.473958,720.114307 173.734488,720.156587 C174.114018,720.218177 174.154578,720.418507 173.879018,720.870457 C173.673158,721.208097 173.623938,721.217177 173.315448,720.974527 Z M161.388738,719.112107 C161.203978,719.017007 161.030508,718.881077 161.003248,718.810037 C160.951278,718.674607 161.537988,717.887347 161.690888,717.887347 C161.846108,717.887347 162.051398,718.518247 161.994638,718.820827 C161.914138,719.249947 161.780938,719.313977 161.388738,719.112107 Z M163.184958,715.197257 C163.057658,714.811517 163.204748,714.175037 163.421198,714.175037 C163.607378,714.175037 164.155338,714.593827 164.155338,714.736117 C164.155338,714.872277 163.522208,715.500857 163.385068,715.500857 C163.330118,715.500857 163.240068,715.364237 163.184958,715.197257 Z" id="malvinas" fill="#CDDE87"></path> -->
    <path
       style="fill:#ffe680"
       d="m 93.132812,102.79492 c -4.457438,3.20765 -7.429799,7.48044 -9.101562,12.6875 4.851679,3.72034 5.415891,8.51371 4.487381,14.12754 0.288208,6.46601 2.941547,12.48672 4.383713,18.73574 5.89057,-0.13712 13.474416,4.80048 17.284756,-1.57717 5.53274,-6.12191 2.75654,-15.94848 7.00361,-22.9896 2.43339,-6.20809 2.55669,-13.03229 4.01046,-19.50159 -7.23511,1.49577 -14.41681,1.98376 -21.427916,-0.7863 -2.027616,0.13146 -5.093852,-2.49996 -6.640442,-0.69612 z"
       id="tucuman"
       inkscape:connector-curvature="0" />
    <path
       style="fill:#aaccff"
       d="m 175.67383,90.324219 c -11.79144,0.313179 -23.96395,-0.50712 -35.52735,0.484375 -4.59587,5.273742 -13.69228,-0.751215 -17.29494,6.146898 -8.91525,7.542948 -7.89907,20.580848 -11.56039,30.825398 -1.47869,6.26823 -0.56977,13.69395 -6.00507,17.85579 -3.10869,5.2273 0.6506,11.97508 1.19124,17.72231 2.20374,7.23693 4.15487,14.5395 5.7219,21.94179 9.20602,3.63855 19.1176,4.15147 28.67546,5.70937 9.95843,4.6228 19.50105,9.96678 28.44759,16.34337 2.69892,-20.23557 6.7221,-40.37536 8.60905,-60.66989 -0.0879,-18.78777 -0.17463,-37.57555 -0.26335,-56.363318 l -1,0.002 z"
       id="santiago-del-estero"
       inkscape:connector-curvature="0" />
    <path
       style="fill:#aaccff"
       d="m 84.681641,581.20508 c -21.995373,2.8915 -44.163886,4.63367 -66.277344,6.76758 -0.446888,13.58548 -3.899293,26.8388 -6.315284,40.06515 1.147782,12.40746 1.117268,25.11534 -4.3585442,36.58914 1.8654741,7.8964 -4.8692198,14.98321 -4.6066667,22.55831 2.0186158,5.78652 2.4648759,12.80707 5.393776,17.87919 4.5929099,3.44746 9.9839369,4.46841 15.5839839,4.85938 1.112152,5.46435 -0.330083,13.4404 2.327615,17.38489 17.500083,1.46347 34.941868,3.72129 52.484885,4.59948 -1.888187,-10.80944 -3.778824,-21.61846 -5.667968,-32.42773 2.852479,-4.85565 8.936181,-9.53914 9.886218,-14.49596 -3.725005,-5.0161 5.663852,-8.72377 7.910657,-13.14467 2.340003,-7.66543 0.712416,-17.43318 8.300378,-22.31784 6.507453,-6.18672 12.970813,-13.38444 16.047023,-21.80736 3.08858,-6.13986 -0.81414,-11.15296 -3.92018,-16.29488 -2.531,-9.13975 -16.688238,-5.92225 -18.615218,-15.31235 -2.813481,-4.54318 -3.871296,-12.20325 -7.688638,-14.96452 z"
       id="santa-cruz"
       inkscape:connector-curvature="0" />
    <path
       style="fill:#cdde87"
       d="m 56.751953,381.23047 -2.380859,38.57422 c -16.208302,17.48875 -31.356968,36.05023 -47.7723588,53.27343 -4.1952816,3.37551 -10.4801348,5.76146 -7.9945567,12.29788 0.86025755,4.62876 -2.3079115,13.66446 5.4144803,10.77896 39.3270202,-2.03277 78.5922052,-5.05596 117.8836812,-7.65887 -0.39447,-9.34247 -0.79047,-18.68489 -1.18554,-28.02734 8.05647,1.79053 16.33404,5.34788 24.25781,6.07813 9.33606,-5.75605 13.13,-8.13221 21.65818,-15.08986 -8.76217,-0.26196 -10.7774,0.30321 -19.41209,1.43946 0.25835,-13.37956 0.51767,-26.7591 0.77539,-40.13867 -14.14164,3.7534 -27.29302,-5.86771 -41.46348,-5.52057 -6.833361,-0.82786 -14.628639,0.78255 -19.356161,-5.3832 -10.06125,-8.1677 -20.124119,-16.33341 -30.184261,-24.50248 -0.08008,1.29297 -0.160157,2.58594 -0.240235,3.87891 z"
       id="rio-negro"
       inkscape:connector-curvature="0"
       sodipodi:nodetypes="ccccccccccccccc" />
    <path
       style="fill:#aaccff"
       d="m 96.886719,241.26953 c -10.769993,1.04825 -21.589483,0.81669 -32.394531,0.82813 -1.282217,10.37583 3.450962,19.89596 4.536285,30.08897 3.128258,10.20203 12.111215,18.50555 11.44611,29.84271 1.176441,10.44009 2.352882,20.88018 3.529323,31.32027 -6.168051,3.85208 -12.336272,7.70389 -18.503906,11.55664 15.824871,-0.79775 31.692013,-0.9854 47.4707,-2.5293 0.66677,-21.0209 -0.97296,-42.04123 -1.57241,-62.99742 1.77431,-8.39594 3.10614,-16.84124 2.99038,-25.44789 -5.8791,-4.00858 -11.37109,-9.51815 -17.501951,-12.66211 z"
       id="san-luis"
       inkscape:connector-curvature="0" />
    <path
       style="fill:#ffe680"
       d="m 16.621094,165.16797 c -2.409937,9.69446 -6.9677573,19.17598 -4.5239,29.34897 1.468699,8.30781 -4.4316653,15.62352 -4.1699174,24.01853 -2.0968869,9.84756 -0.6317205,20.08379 0.2881443,29.94679 2.0766041,5.81324 3.6418541,11.76847 4.9154381,17.80485 6.258545,-4.54829 12.732885,-8.83177 18.15625,-14.4043 3.740821,5.07863 8.300328,7.13275 14.221997,4.13686 6.498025,-2.1714 13.052718,-2.42338 19.668628,-0.61733 5.778459,-3.35312 0.604785,-12.52354 10.302735,-9.30468 8.813193,2.09632 1.364364,-7.491 0.82317,-12.11605 -3.590935,-12.26267 -9.004437,-24.36249 -18.729774,-32.99171 -6.642919,-7.76671 -16.167242,-12.79726 -23.344269,-19.58451 -2.70266,-5.56755 -2.361434,-13.90338 -9.801787,-15.16379 -2.315051,-0.0659 -7.995495,-6.11564 -7.806715,-1.07363 z"
       id="san-juan"
       inkscape:connector-curvature="0" />
    <path
       style="fill:#ffe680"
       d="m 329.10156,90.666016 c -5.47916,1.630044 -13.32985,1.154553 -11.71747,9.079963 -1.30601,6.488511 -0.9474,13.812261 -3.24119,19.805151 -6.11873,8.47301 -16.68388,9.90665 -25.75032,13.71254 2.11446,8.29515 5.08182,16.17469 10.73633,22.74219 10.67985,-6.81361 20.38571,-15.53108 31.68574,-21.13176 7.24273,-0.0522 6.1808,-7.55845 7.82402,-12.63777 -0.59309,-8.182 -0.10232,-17.0136 -1.65039,-24.851564 -2.6651,-1.719308 -4.7203,-6.946139 -7.88672,-6.71875 z"
       id="misiones"
       inkscape:connector-curvature="0" />
    <path
       style="fill:#aaccff"
       d="m 14.164062,349.07422 c -4.1861608,4.6993 -8.7855056,9.21 -8.3042072,16.01993 -3.5129979,13.35187 0.2570745,27.18511 -0.9372152,40.61092 -3.5565508,8.31438 -7.1584689,16.61806 -6.7812996,25.86392 -0.5453255,8.76522 -5.6455903,16.76036 -3.7196174,25.77659 1.3136883,8.87206 3.1202625,17.69517 4.6173399,26.54895 14.5085255,-9.32341 24.2163725,-23.81016 35.9079395,-36.16312 7.639984,-9.0553 16.41944,-17.63212 23.37331,-26.97555 0.910588,-13.63022 1.822904,-27.26033 2.732422,-40.89063 -10.429215,-3.92091 -21.159477,-7.28922 -29.530888,-14.98689 -7.202173,-3.95051 -10.716351,-11.60448 -15.723018,-17.7592 -0.544922,0.65169 -1.089844,1.30339 -1.634766,1.95508 z"
       id="neuquen"
       inkscape:connector-curvature="0" />
    <path
       style="fill:#cdde87"
       d="m 30.003906,247.63867 c -5.927773,5.00705 -11.792298,10.09343 -18.09375,14.63281 3.290211,9.18379 10.760693,17.48351 8.96488,27.74337 1.22008,11.18798 -2.911432,21.57038 -5.904333,32.12968 -1.532519,9.66722 -1.816533,19.83844 -0.884765,29.39844 4.939143,7.28634 10.08851,14.3625 17.979905,18.68471 8.132065,7.5326 19.186967,9.70106 29.098219,13.96763 -0.743984,-11.11724 -1.489709,-22.23436 -2.234374,-33.35156 10.423783,-3.9129 20.153988,-9.14827 29.332031,-15.43555 -2.037958,-14.85337 -2.67926,-30.13827 -5.547325,-44.73569 -5.000398,-9.56674 -11.17311,-18.72409 -11.751434,-29.83513 -1.341734,-3.46743 -1.211472,-13.4559 -5.484444,-10.89207 -4.999388,2.43442 -11.113449,-1.94722 -16.452478,1.20059 -6.204324,2.07329 -12.176057,3.28535 -16.076738,-3.17116 -1.221876,-1.225 -1.621301,-2.05452 -2.945394,-0.33607 z"
       id="mendoza"
       inkscape:connector-curvature="0" />
    <path
       style="fill:#cdde87"
       d="m 26.162109,141.9043 c -3.397463,8.26874 -6.792137,16.53863 -10.191406,24.80664 5.619455,2.63193 12.440025,4.17305 12.883227,11.51184 1.284877,9.17806 11.052897,12.22493 17.025101,18.0155 10.519169,7.32374 18.326492,17.77155 23.001225,29.64897 3.047824,6.48586 4.801935,13.50596 7.291619,20.22213 7.630953,0.15346 15.23484,-0.40009 22.837891,-0.97461 0.004,-11.47751 1.600664,-23.06548 3.393374,-34.30707 1.23466,-5.1319 8.80552,-12.37948 5.71405,-16.06598 -8.79041,-1.90415 -5.45075,-13.98881 -13.212276,-17.49929 C 88.385323,172.8132 83.949398,166.69623 80.861328,159.5 74.41593,157.97607 67.882224,151.57547 61.554532,156.41589 56.172593,158.35245 51.079996,152.0111 45.818359,150.50586 40.584806,145.13229 34.00472,142.15653 26.888672,140.13281 l -0.379467,0.92521 z"
       id="la-rioja"
       inkscape:connector-curvature="0" />
    <path
       style="fill:#ffccaa"
       d="m 146.73242,310.76367 c -13.24152,0.50236 -26.48303,1.005 -39.72461,1.50586 -0.009,8.15886 -0.021,16.31771 -0.0312,24.47656 -18.62302,0.94579 -37.24624,1.88772 -55.869138,2.83594 1.739562,14.58288 3.017209,29.13647 3.753906,43.78125 12.38106,9.38396 23.76953,20.55345 36.761719,28.84961 14.551953,0.32137 29.058993,2.53123 42.878903,7.10742 5.14687,1.00712 10.43587,0.27926 15.48633,-0.90039 -0.39971,-35.91147 -0.80135,-71.82292 -1.20312,-107.73437 -0.68425,0.026 -1.36849,0.0521 -2.05274,0.0781 z"
       id="la-pampa"
       inkscape:connector-curvature="0" />
    <path
       style="fill:#ffccaa"
       d="m 160.8418,18.507812 c 0.0585,15.784108 -0.0393,31.569462 0.26953,47.351563 4.4834,-3.931862 8.99418,-8.930471 13.17019,-1.642399 22.6512,20.640921 46.40196,40.034454 69.1384,60.568184 5.12537,-12.20457 10.72302,-24.24095 18.35156,-35.109379 -0.24317,-11.058418 -12.13659,-14.96663 -20.32812,-19.544922 -22.31391,-10.694181 -46.81945,-18.924168 -63.7222,-37.648326 -6.86298,-5.570306 -11.5676,-13.059553 -16.89108,-19.998158 0.004,2.007813 0.008,4.015625 0.0117,6.023437 z"
       id="formosa"
       inkscape:connector-curvature="0" />
    <path
       style="fill:#cdde87"
       d="m 214.26562,203.36328 c -4.58686,7.66392 -2.22192,18.58324 -10.49875,23.8039 -3.43802,4.24886 -9.58815,7.56363 -11.53249,12.32696 1.22682,13.36407 5.81853,26.76733 1.97907,40.07239 0.39659,5.03718 10.54148,3.76697 14.92363,6.22568 10.01592,2.61175 20.00065,5.33172 29.85315,8.51248 1.12887,-16.24464 3.73318,-32.26996 8.1091,-47.95542 2.21863,-11.24174 6.26459,-22.12964 5.30304,-33.77456 0.38804,-5.91372 -9.63675,-4.51582 -13.69755,-7.30569 -7.52749,-3.66661 -15.80702,-2.9503 -23.92162,-3.1909 l -0.37357,0.9276 z"
       id="entre-rios"
       inkscape:connector-curvature="0" />
    <path
       style="fill:#aaccff"
       d="m 242.13086,129.18164 c -6.26588,9.80807 -13.42119,19.18866 -15.94761,30.79718 -5.84976,14.87957 -8.80522,30.59339 -12.57778,46.07196 9.31386,-0.11125 18.56724,0.12875 27.18028,4.10489 5.40981,1.63697 11.55867,5.88603 14.41944,-1.47441 15.59632,-18.38529 31.19263,-36.77058 46.78895,-55.15587 -3.32251,-7.10435 -6.64302,-14.20965 -9.96875,-21.3125 -8.66307,1.41903 -17.36828,5.03117 -25.92932,1.29338 -7.73312,-1.84097 -15.46685,-3.67933 -23.19959,-5.52189 l -0.53874,0.84247 z"
       id="corrientes"
       inkscape:connector-curvature="0" />
    <path
       style="fill:#ffe680"
       d="m 112.10938,182.7832 c -6.3846,13.2255 -15.109737,25.71233 -16.91071,40.61662 -1.562698,6.81621 0.09667,13.94035 -0.143982,20.88338 5.055672,3.8355 10.110622,7.67195 15.166012,11.50782 -1.76504,13.47059 -4.00252,26.92395 -2.2146,40.52515 0.36737,7.37246 0.73267,14.74503 1.10132,22.11742 12.46686,-0.55266 24.93351,-1.11007 37.40039,-1.66211 2.1548,-7.67824 2.07429,-16.49503 8.90095,-21.7964 5.58937,-7.48059 14.34904,-13.24644 15.3542,-23.20584 1.68196,-7.29639 6.09258,-14.54652 2.3623,-21.93396 -2.15349,-6.53898 -3.50663,-13.08647 -0.73139,-19.67786 1.19474,-5.96386 4.21248,-12.05072 0.2962,-17.66697 -1.91628,-5.8628 -3.69056,-11.82938 -9.70718,-14.69031 -8.49182,-7.15171 -18.88256,-11.33022 -29.84067,-12.80083 -6.70435,-1.65052 -13.55806,-2.46715 -20.3766,-3.47978 l -0.46087,0.88746 z"
       id="cordoba"
       inkscape:connector-curvature="0" />
    <path
       style="fill:#ffe680"
       d="m 133.67383,484.0957 c -4.3613,6.25335 -8.73253,7.3515 -13.11328,0.48438 -40.659435,2.63263 -81.319058,5.26233 -121.9785188,7.89453 0.97620695,11.3547 4.4917862,22.03206 8.9298565,32.46269 2.4528551,12.40704 4.1515313,24.98188 2.4130157,37.62546 -0.9536055,9.12831 5.4225106,17.13759 7.6458276,25.78092 1.071584,6.96389 9.957458,1.47106 14.8213,2.38937 18.237787,-1.6268 36.475782,-3.25126 54.713438,-4.87953 0.51806,-5.71725 6.997886,-9.55971 9.826309,-14.55031 2.857412,-6.11653 9.974472,-7.29459 14.630722,-11.03954 5.01328,-11.48464 10.18555,-23.04883 10.95285,-35.73454 -0.42033,-7.85419 9.3376,-13.34589 6.56668,-21.11116 5.48902,2.14944 11.74229,6.50785 13.62668,-1.82368 5.02611,-5.50864 5.48413,-10.25697 -1.77284,-13.72194 -2.2751,-0.87544 -5.16393,-6.63352 -7.26204,-3.77665 z"
       id="chubut"
       inkscape:connector-curvature="0" />
    <path
       style="fill:#ffe680"
       d="m 168.09766,55.244141 c -8.66538,3.071283 -10.69883,12.750435 -16.42231,19.066709 -4.68535,6.639264 -9.3714,13.278026 -14.05621,19.917666 11.58391,0.545815 23.16798,1.08833 34.75195,1.632812 -0.0748,18.486332 -0.15042,36.972652 -0.22461,55.458982 20.51433,-0.023 41.02865,-0.0457 61.54297,-0.0703 3.85728,-7.11743 8.99277,-13.96597 12.11133,-21.23828 -0.43403,-5.406 -0.58158,-11.04809 -5.83249,-14.03731 -23.54337,-20.487677 -47.08752,-40.974453 -70.6304,-61.462691 l -0.86106,0.508501 z"
       id="chaco"
       inkscape:connector-curvature="0" />
    <path
       style="fill:#ffccaa"
       d="m 33.929688,85.666016 c 2.391005,8.024603 2.90521,16.106994 0.858817,24.268234 -1.984068,5.27297 7.388784,11.54236 0.594819,15.00042 -6.774956,4.01895 -6.981234,12.37959 -9.914574,18.93838 8.12312,1.79744 14.561393,6.54614 20.513672,12.14453 6.177675,1.81555 12.212195,8.17316 18.584247,3.75218 5.066243,-1.09942 13.189527,1.21874 15.382595,6.47666 3.055013,10.25468 16.376737,12.7296 18.167374,23.53544 -0.002,5.07462 8.022192,10.76862 10.873592,7.68689 2.68954,-6.54451 9.01833,-12.46307 6.04911,-19.98195 -2.18883,-9.68136 -6.49708,-18.85978 -7.01739,-28.9673 -0.62723,-5.07352 -9.962604,-1.44344 -12.25479,-4.83307 -3.590686,-8.02689 -2.364015,-16.61695 -2.703599,-25.05307 -1.445838,-5.82654 -0.920139,-14.3177 -9.247919,-10.8458 -5.998196,-1.32974 -9.698989,-7.61828 -5.528533,-13.238732 -2.760059,-4.464031 -2.837585,-13.151035 -10.071372,-10.575646 -11.633791,0.479605 -23.253346,0.504776 -34.827065,-0.92826 0.180338,0.873698 0.360677,1.747396 0.541016,2.621094 z"
       id="catamarca"
       inkscape:connector-curvature="0" />
    <path
       style="fill:#c87137;stroke-width:0.15552083"
       d="m 237.61133,293.50195 c -7.12368,1.04539 -9.89389,11.81542 -3.67084,16.01861 2.29814,5.14232 6.93205,-2.02559 10.99744,-2.64499 3.85352,-2.79487 0.19171,-9.72071 -3.03949,-10.76619 -1.36924,-0.5611 -2.57826,-3.73033 -4.28711,-2.60743 z"
       id="caba-big"
       inkscape:connector-curvature="0" />
    <path
       style="fill:#ffccaa"
       d="m 174.04883,148.2207 c -2.6845,18.97934 -6.32286,37.94078 -8.43559,56.93085 1.09033,11.25989 3.94599,22.55637 0.7227,33.7215 -0.90675,12.1747 -0.16732,24.85411 -2.06055,36.72656 -6.05425,9.10255 -14.42163,16.57909 -19.3457,26.45508 10.65322,-0.27923 21.97646,1.10019 32.2207,-0.19336 4.7191,-3.49521 7.96689,-10.30371 13.6415,-11.64715 6.96746,0.86681 8.02575,-3.82809 7.33116,-9.76496 3.65984,-13.00142 0.45427,-26.25483 -0.29688,-39.41797 5.95219,-8.10838 15.67077,-14.16835 16.90618,-24.84329 5.97946,-19.57955 8.78636,-40.03902 17.0328,-58.90953 3.00877,-6.4018 5.38274,-12.36924 -4.18246,-10.10751 -17.75587,-0.29562 -35.51135,-0.62369 -53.27019,-0.65725 l -0.15265,0.98828 z"
       id="santa-fe"
       inkscape:connector-curvature="0" />
    <path
       style="fill:#aaccff"
       d="m 194.13281,280.14844 -10.5043,9.45624 -16.49221,6.23611 -24.42341,2.52249 0.12784,19.12101 0.075,11.2096 0.15776,14.33753 0.12328,11.20458 0.14224,13.44623 0.12807,12.10639 0.0695,8.51657 -0.40373,69.33153 23.49999,-6.1797 10.81649,-34.20602 54.96282,-14.17678 24.73633,-23.25391 10.64062,-29.32226 -22.64481,-46.52321 -5.71779,1.11711 -4.52405,-0.7684 0.0981,-7.17001 2.61078,-3.65159 0.22461,-3.73437 -43.58985,-12.09375 -0.11328,2.47461 z"
       id="buenos-aires"
       inkscape:connector-curvature="0"
       sodipodi:nodetypes="cccccccccccccccccccccccccc" />
    <path
       style="fill:#cdde87"
       d="M 117.15134,12.109502 104.26956,35.238881 103.01078,62.841558 83.734276,38.636719 76.967217,52.712989 62.394531,49.154297 47.890375,57.808612 34.304688,71.271484 c 1.298626,4.914199 -3.642501,15.396903 2.412498,16.066221 11.385894,1.563176 22.84588,0.764503 34.28672,0.578311 1.759919,1.676817 2.388902,3.485793 2.471572,5.338102 0.156983,3.51738 -1.655974,7.191012 -1.435791,10.412662 2.104393,1.64181 3.799663,4.41657 5.772824,6.42143 1.981817,2.01365 4.243967,3.25064 7.482545,1.78297 3.259666,0.48049 5.471133,-1.66485 7.700668,-3.36364 2.248836,-1.7135 4.516055,-2.97268 7.895856,-0.6247 1.34565,0.50308 2.74813,0.90514 4.17902,1.20021 1.77763,0.36657 3.59912,0.56798 5.40997,0.59284 1.73499,0.0238 3.46021,-0.11451 5.12778,-0.42504 1.66558,-0.31016 3.27364,-0.79212 4.77642,-1.45591 1.05872,-1.19706 1.98389,-2.6522 2.91184,-4.10195 0.46696,-0.72954 0.93463,-1.45773 1.42038,-2.15098 0.93714,-1.33747 1.94156,-2.544925 3.13802,-3.381277 0.79819,-0.557955 1.68185,-0.950749 2.68803,-1.106804 0.98537,-0.15283 2.08825,-0.0786 3.34341,0.289909 1.33565,0.428981 2.50832,0.547664 3.55431,0.425179 0.70085,-0.08207 1.34483,-0.272406 1.94287,-0.550218 1.31301,-0.609942 2.40456,-1.641532 3.3903,-2.874702 1.26141,-1.578032 2.34954,-3.486152 3.50668,-5.263205 0.78525,-1.17071 1.58654,-2.336317 2.39851,-3.498529 0.73917,-1.057998 1.48718,-2.113183 2.23998,-3.166843 4.87823,-6.827796 9.95776,-13.591586 14.13559,-20.642062 L 164.63281,17.59377 151.55664,3.6679888 Z"
       id="salta"
       inkscape:connector-curvature="0"
       sodipodi:nodetypes="ccccccccccscscscssscsssscssscsscccc" />
    <path
       style="fill:#aaccff"
       d="m 75.034181,17.957124 -4.061834,7.151379 -11.773128,26.756731 15.623047,9.902344 6.447125,-15.295624 7.899379,7.910007 7.036658,7.300379 15.227362,5.593802 -3.36313,-27.786955 9.08168,-27.379685 -5.71338,-0.494375 C 104.91634,10.673277 101.38028,9.432343 94.930964,7.8231364 L 87.538868,5.3222203 81.203474,3.1788107 78.227065,11.702657 Z"
       id="jujuy"
       inkscape:connector-curvature="0"
       sodipodi:nodetypes="cccccccccccccccc" />
  </g>
</svg>
